# Blender v2.78 (sub 0) OBJ File: ''
# www.blender.org
o Cube.001_Cube.002
v -0.038355 0.010832 -1.052256
v -0.038355 2.010832 -1.052256
v 0.014793 0.010832 -1.052266
v 0.014793 2.010832 -1.052266
v -0.037958 0.010832 0.947744
v -0.037958 2.010832 0.947744
v 0.015190 0.010832 0.947734
v 0.015190 2.010832 0.947734
vt 0.5154 0.7315
vt 0.5115 0.5856
vt 0.5154 0.5856
vt 1.0058 0.9926
vt 0.0036 0.0059
vt 1.0043 0.0044
vt 0.0051 0.9941
vt 1.0033 0.0050
vt 1.0056 0.9913
vt 0.0045 0.0073
vt 0.5155 0.4397
vt 0.5115 0.7315
vt 0.5153 0.8774
vt 0.5114 0.8774
vt 0.0068 0.9936
vt 0.5116 0.4397
vn -0.0002 0.0000 -1.0000
vn 1.0000 0.0000 -0.0002
vn 0.0002 0.0000 1.0000
vn -1.0000 0.0000 0.0002
vn 0.0000 -1.0000 0.0000
vn 0.0000 1.0000 0.0000
s off
f 2/1/1 3/2/1 1/3/1
f 4/4/2 7/5/2 3/6/2
f 8/7/3 5/8/3 7/5/3
f 6/9/4 1/10/4 5/8/4
f 3/2/5 5/11/5 1/3/5
f 4/12/6 6/13/6 8/14/6
f 2/1/1 4/12/1 3/2/1
f 4/4/2 8/7/2 7/5/2
f 8/7/3 6/9/3 5/8/3
f 6/9/4 2/15/4 1/10/4
f 3/2/5 7/16/5 5/11/5
f 4/12/6 2/1/6 6/13/6
o Cube_Cube.001
v -0.997267 0.010832 -0.011375
v -0.997267 2.010832 -0.011375
v -0.997267 0.010832 -0.064523
v -0.997267 2.010832 -0.064523
v 1.002733 0.010832 -0.011375
v 1.002733 2.010832 -0.011375
v 1.002733 0.010832 -0.064523
v 1.002733 2.010832 -0.064523
vt 0.5154 0.7315
vt 0.5115 0.5856
vt 0.5154 0.5856
vt 1.0058 0.9926
vt 0.0036 0.0059
vt 1.0043 0.0044
vt 0.0051 0.9941
vt 1.0033 0.0050
vt 1.0056 0.9913
vt 0.0045 0.0073
vt 0.5116 0.4397
vt 0.5115 0.7315
vt 0.5153 0.8774
vt 0.5114 0.8774
vt 0.0068 0.9936
vt 0.5155 0.4397
vn -1.0000 0.0000 0.0000
vn 0.0000 0.0000 -1.0000
vn 1.0000 0.0000 0.0000
vn 0.0000 0.0000 1.0000
vn 0.0000 -1.0000 0.0000
vn 0.0000 1.0000 0.0000
s off
f 10/17/7 11/18/7 9/19/7
f 12/20/8 15/21/8 11/22/8
f 16/23/9 13/24/9 15/21/9
f 14/25/10 9/26/10 13/24/10
f 15/27/11 9/19/11 11/18/11
f 12/28/12 14/29/12 16/30/12
f 10/17/7 12/28/7 11/18/7
f 12/20/8 16/23/8 15/21/8
f 16/23/9 14/25/9 13/24/9
f 14/25/10 10/31/10 9/26/10
f 15/27/11 13/32/11 9/19/11
f 12/28/12 10/17/12 14/29/12
