# Blender v2.78 (sub 0) OBJ File: ''
# www.blender.org
o Icosphere
v 0.276388 0.447220 0.850649
v -0.822537 0.432027 0.434531
v -0.726434 0.446738 -0.439635
v 0.248867 0.441904 -0.620562
v 1.122323 0.447216 -0.124058
v 0.139415 0.916828 -0.070208
v 1.519139 0.000000 -0.043038
v 1.138061 0.000000 -0.367383
v 0.000000 0.000000 1.000000
v 0.729126 0.000000 0.766912
v -0.951058 0.000000 0.309013
v -0.587786 0.000000 0.809017
v -0.610717 0.000000 -0.536826
v -0.953668 0.000000 -0.243757
v 0.558811 0.000000 -0.458275
v -0.056153 0.000000 -0.600865
v 0.836926 0.525736 0.445659
v -0.337857 0.514222 0.739887
v -0.925636 0.514220 -0.069125
v -0.282852 0.525625 -0.659394
v 0.682420 0.525116 -0.405378
v 0.179365 0.751637 0.440624
v 0.589366 0.781602 0.012008
v -0.571908 0.745067 0.100381
v -0.383857 0.736671 -0.371005
v 0.278491 0.739624 -0.487339
vt 0.5437 0.2047
vt 0.6927 0.3629
vt 0.4901 0.3492
vt 0.1954 0.3067
vt 0.3503 0.2279
vt 0.2881 0.4164
vt 0.1999 0.5659
vt 0.1747 0.4524
vt 0.3180 0.5411
vt 0.4597 0.6878
vt 0.3179 0.6380
vt 0.4738 0.5974
vt 0.7587 0.5590
vt 0.6020 0.6329
vt 0.5797 0.4850
vt 0.4570 0.4828
vt 0.8487 0.7407
vt 0.6064 0.8413
vt 0.3279 0.8413
vt 0.1107 0.7197
vt 0.0001 0.5434
vt 0.0118 0.2903
vt 0.1917 0.0694
vt 0.4701 0.0001
vt 0.7845 0.1377
vt 0.9999 0.5620
vn 0.2716 0.8024 0.5314
vn -0.4120 0.7985 0.4390
vn -0.5353 0.7322 -0.4212
vn 0.1285 0.3944 -0.9099
vn 0.4071 0.8159 -0.4106
vn 0.3226 0.9051 -0.2769
vn 0.4931 0.7860 -0.3730
vn 0.3615 0.3506 -0.8639
vn -0.0763 0.9083 -0.4113
vn -0.1110 0.7831 -0.6119
vn -0.4265 0.6522 -0.6267
vn -0.2603 0.9579 -0.1209
vn -0.4659 0.8617 -0.2012
vn -0.6099 0.7527 0.2477
vn -0.1508 0.9371 0.3148
vn -0.1859 0.9005 0.3931
vn -0.0207 0.8004 0.5991
vn 0.2282 0.9315 0.2834
vn 0.3019 0.8865 0.3507
vn 0.5541 0.8159 0.1651
vn 0.5410 0.4166 -0.7306
vn 0.1547 0.0629 -0.9860
vn 0.4468 -0.0151 -0.8945
vn 0.0592 -0.0852 -0.9946
vn -0.1133 -0.1581 -0.9809
vn -0.4534 0.0758 -0.8881
vn -0.8438 0.2133 -0.4925
vn -0.9986 0.0528 0.0047
vn -0.9491 0.2157 0.2295
vn -0.5399 0.3644 0.7588
vn -0.2977 0.2679 0.9163
vn -0.1235 0.3821 0.9158
vn 0.5094 0.3702 0.7768
vn 0.6894 0.2695 0.6724
vn 0.6989 0.6669 0.2582
vn 0.2215 -0.1955 -0.9554
vn -0.6497 -0.0029 -0.7602
vn -0.8070 0.0697 0.5864
vn 0.3020 0.1288 0.9446
vn 0.5939 0.4005 -0.6978
s off
f 1/1/1 17/2/1 22/3/1
f 2/4/2 18/5/2 24/6/2
f 3/7/3 19/8/3 25/9/3
f 4/10/4 20/11/4 26/12/4
f 5/13/5 21/14/5 23/15/5
f 23/15/6 26/12/6 6/16/6
f 23/15/7 21/14/7 26/12/7
f 21/14/8 4/10/8 26/12/8
f 26/12/9 25/9/9 6/16/9
f 26/12/10 20/11/10 25/9/10
f 20/11/11 3/7/11 25/9/11
f 25/9/12 24/6/12 6/16/12
f 25/9/13 19/8/13 24/6/13
f 19/8/14 2/4/14 24/6/14
f 24/6/15 22/3/15 6/16/15
f 24/6/16 18/5/16 22/3/16
f 18/5/17 1/1/17 22/3/17
f 22/3/18 23/15/18 6/16/18
f 22/3/19 17/2/19 23/15/19
f 17/2/20 5/13/20 23/15/20
f 8/17/21 21/14/21 5/13/21
f 8/17/22 15/18/22 21/14/22
f 15/18/23 4/10/23 21/14/23
f 16/19/24 20/11/24 4/10/24
f 16/19/25 13/20/25 20/11/25
f 13/20/26 3/7/26 20/11/26
f 14/21/27 19/8/27 3/7/27
f 14/21/28 11/22/28 19/8/28
f 11/22/29 2/4/29 19/8/29
f 12/23/30 18/5/30 2/4/30
f 12/23/31 9/24/31 18/5/31
f 9/24/32 1/1/32 18/5/32
f 10/25/33 17/2/33 1/1/33
f 10/25/34 7/26/34 17/2/34
f 7/26/35 5/13/35 17/2/35
f 15/18/36 16/19/36 4/10/36
f 13/20/37 14/21/37 3/7/37
f 11/22/38 12/23/38 2/4/38
f 9/24/39 10/25/39 1/1/39
f 7/26/40 8/17/40 5/13/40
